<svg width="56" height="51" viewBox="0 0 56 51" fill="none" xmlns="http://www.w3.org/2000/svg">
<path fill-rule="evenodd" clip-rule="evenodd" d="M42.5 26C43.3434 26 44.1673 25.9165 44.9638 25.7572C44.4745 17.3723 39.0655 10.3085 31.5812 7.41014C31.0964 8.2775 30.712 9.20858 30.4436 10.1877C36.9031 12.6649 41.5718 18.7578 41.9721 25.9891C42.1472 25.9963 42.3231 26 42.5 26ZM33.4131 4.91631C41.3409 8.29984 47.0766 15.8275 47.8984 24.7774C52.0993 22.7628 55 18.4701 55 13.5C55 6.59644 49.4036 1 42.5 1C38.9202 1 35.6919 2.50479 33.4131 4.91631ZM56 13.5C56 19.0077 52.7018 23.745 47.9727 25.8447C47.9908 26.2275 48 26.6127 48 27C48 40.2548 37.2548 51 24 51C10.7452 51 0 40.2548 0 27C0 13.7452 10.7452 3 24 3C26.963 3 29.8005 3.53693 32.4207 4.51881C34.8932 1.74602 38.4927 0 42.5 0C49.9558 0 56 6.04416 56 13.5ZM42.5 27C43.3537 27 44.189 26.9207 44.9988 26.7692C44.9996 26.846 45 26.923 45 27C45 38.598 35.598 48 24 48C12.402 48 3 38.598 3 27C3 15.402 12.402 6 24 6C26.3161 6 28.5446 6.37494 30.6281 7.06743C30.1528 7.94272 29.7716 8.87644 29.4978 9.85507C27.7648 9.2998 25.9174 9 24 9C14.0589 9 6 17.0589 6 27C6 36.9411 14.0589 45 24 45C27.4616 45 30.695 44.0229 33.4393 42.3294C34.0174 42.7511 34.7296 43 35.5 43C37.433 43 39 41.433 39 39.5C39 38.8335 38.8137 38.2106 38.4904 37.6804C40.6961 34.6928 42 30.9986 42 27L42 26.9909C42.1659 26.997 42.3326 27 42.5 27ZM37.83 36.8882C39.8254 34.1022 41 30.6883 41 27L40.9998 26.9176C34.25 26.1713 29 20.4488 29 13.5C29 12.5862 29.0908 11.6935 29.2639 10.8307C27.6065 10.2915 25.8373 10 24 10C14.6112 10 7 17.6112 7 27C7 36.3888 14.6112 44 24 44C27.1811 44 30.158 43.1263 32.7041 41.6057C32.2621 41.0198 32 40.2905 32 39.5C32 37.567 33.567 36 35.5 36C36.3948 36 37.2112 36.3358 37.83 36.8882ZM33.5508 41.0655C33.2062 40.6371 33 40.0926 33 39.5C33 38.1193 34.1193 37 35.5 37C36.1671 37 36.7731 37.2613 37.2214 37.6871C36.1713 38.9846 34.9341 40.1244 33.5508 41.0655ZM34.3567 41.7239C35.6422 40.818 36.8038 39.748 37.8109 38.5445C37.9328 38.8389 38 39.1616 38 39.5C38 40.8807 36.8807 42 35.5 42C35.088 42 34.6994 41.9004 34.3567 41.7239ZM30.2163 11.1724C36.2081 13.5276 40.5389 19.1868 40.9654 25.9067C34.7858 25.1503 30 19.884 30 13.5C30 12.7046 30.0743 11.9266 30.2163 11.1724Z" fill="black"/>
</svg>
